<svg width="32" height="32" viewBox="0 0 32 32" fill="none" xmlns="http://www.w3.org/2000/svg">
  <!-- Modern Laundry/Cleaning Icon with Lush Brand Colors -->
  <rect width="32" height="32" rx="6" fill="#0ea5e9"/>
  
  <!-- Washing machine/droplet symbol -->
  <path d="M16 8C13.2386 8 11 10.2386 11 13C11 15.7614 13.2386 18 16 18C18.7614 18 21 15.7614 21 13C21 10.2386 18.7614 8 16 8Z" fill="white" opacity="0.9"/>
  
  <!-- Sparkle/clean effect -->
  <circle cx="12" cy="11" r="1.5" fill="#fbbf24" opacity="0.9"/>
  <circle cx="20" cy="11" r="1.5" fill="#fbbf24" opacity="0.9"/>
  
  <!-- Bottom waves/water -->
  <path d="M8 22C8 22 10 20 12 20C14 20 14 22 16 22C18 22 18 20 20 20C22 20 24 22 24 22V24C24 25.1046 23.1046 26 22 26H10C8.89543 26 8 25.1046 8 24V22Z" fill="white" opacity="0.8"/>
  
  <!-- Letter L accent -->
  <text x="16" y="16" font-family="Arial, sans-serif" font-size="10" font-weight="bold" fill="white" text-anchor="middle" dominant-baseline="middle">L</text>
</svg>
